<?xml version="1.0" encoding="UTF-8" standalone="no"?>
<svg
   viewBox="0 0 1024 1024"
   version="1.1"
   id="svg16"
   sodipodi:docname="logo_mac.svg"
   inkscape:version="1.4 (e7c3feb1, 2024-10-09)"
   xmlns:inkscape="http://www.inkscape.org/namespaces/inkscape"
   xmlns:sodipodi="http://sodipodi.sourceforge.net/DTD/sodipodi-0.dtd"
   xmlns="http://www.w3.org/2000/svg"
   xmlns:svg="http://www.w3.org/2000/svg"
   xmlns:bx="https://boxy-svg.com">
  <sodipodi:namedview
     id="namedview16"
     pagecolor="#ffffff"
     bordercolor="#000000"
     borderopacity="0.25"
     inkscape:showpageshadow="2"
     inkscape:pageopacity="0.0"
     inkscape:pagecheckerboard="0"
     inkscape:deskcolor="#d1d1d1"
     inkscape:zoom="0.41538742"
     inkscape:cx="266.01672"
     inkscape:cy="530.82975"
     inkscape:window-width="1648"
     inkscape:window-height="1056"
     inkscape:window-x="82"
     inkscape:window-y="33"
     inkscape:window-maximized="1"
     inkscape:current-layer="svg16" />
  <defs
     id="defs12">
    <filter
       id="shadow"
       bx:pinned="true"
       x="0"
       y="0"
       width="1"
       height="1">
      <title
         id="title1">Drop Shadow</title>
      <feDropShadow
         result="drop-shadow-0"
         in="SourceGraphic"
         style="flood-opacity: 0.3;"
         stdDeviation="10"
         dx="0"
         dy="10" />
    </filter>
    <bx:guide
       x="-10"
       y="100"
       angle="90" />
    <bx:guide
       x="100"
       y="-10"
       angle="0" />
    <bx:guide
       x="924"
       y="-10"
       angle="0" />
    <bx:guide
       x="-10"
       y="924"
       angle="90" />
    <linearGradient id="grad3d" x1="0" y1="0" x2="0" y2="1">
      <stop offset="0" stop-color="#ffffff" stop-opacity="0.25"/>
      <stop offset="1" stop-color="#000000" stop-opacity="0.3"/>
    </linearGradient>
    <clipPath
       id="clip-0">
      <path
         style="stroke-width: 3px; fill: rgb(255, 255, 255);"
         d="M 100 724 L 100 300 C 100 185.001 170 99.995 300.026 100 L 724 99.995 C 854 100 924 185.001 924 300 L 924 724 C 924 839.001 854 923.995 724 924 L 300.026 924 C 170 924 100 839.001 100 724 Z"
         id="path2">
        <title
           id="title2">Icon Mask</title>
      </path>
    </clipPath>
    <symbol
       id="symbol-0"
       viewBox="0 0 1024 1024"
       bx:pinned="true">
      <title
         id="title3">App Icon Guides</title>
      <g
         style=""
         transform="matrix(1, 0, 0, 1, 0, 0)"
         id="g12">
        <title
           id="title4">App Icon Guides</title>
        <path
           style="fill: none; stroke: rgb(145, 145, 145); stroke-width: 3px;"
           d="M 0 739.001 L 0 285.001 C 0 135.001 112 0 284.999 0 L 739.001 0 C 912 0 1024 135.001 1024 285.001 L 1024 739.001 C 1024 889.001 912 1024 739.001 1024 L 284.999 1024 C 112 1024 0 889.001 0 739.001 Z"
           id="path5">
          <title
             id="title5">Outer Bounding Box</title>
        </path>
        <path
           style="stroke: rgb(145, 145, 145); fill: none; stroke-width: 3px;"
           d="M 50 739.001 L 50 285.001 C 50 162 140 50 284.999 50 L 739.001 50 C 884.001 50 974 162 974 285.001 L 974 739.001 C 974 862 884.001 974 739.001 974 L 284.999 974 C 140 974 50 862 50 739.001 Z"
           id="path6">
          <title
             id="title6">Inner Bounding Box</title>
        </path>
        <path
           style="fill: none; stroke: rgb(255, 0, 0); stroke-width: 3px;"
           d="M 100 724.005 L 100 300.005 C 100 185.006 170 100 300.026 100.005 L 724 100 C 854 100.005 924 185.006 924 300.005 L 924 724.005 C 924 839.006 854 924 724 924.005 L 300.026 924.005 C 170 924.005 100 839.006 100 724.005 Z"
           id="path7">
          <title
             id="title7">Icon Grid Bounding Box</title>
        </path>
        <path
           style="fill: none; stroke: rgb(255, 0, 0);"
           d="M 154.017 870.001 L 870.001 870.001 L 870.001 154.014 L 154.017 154.014 L 154.017 870.001 Z M 154.017 870.001 L 870.001 154.014 L 154.017 870.001 Z M 100 511.995 L 924 511.995 L 100 511.995 Z M 100 669.36 L 924 669.36 L 100 669.36 Z M 924 354.631 L 100 354.631 L 924 354.631 Z M 669.365 99.995 L 669.365 923.995 L 669.365 99.995 Z M 354.635 923.995 L 354.635 99.995 L 354.635 923.995 Z M 512 99.995 L 512 923.995 L 512 99.995 Z M 154.017 154.014 L 870.001 870.001 L 154.017 154.014 Z"
           id="path8">
          <title
             id="title8">Icon Grid</title>
        </path>
        <circle
           style="fill: none; stroke: rgba(255, 0, 0, 0.6);"
           cx="512"
           cy="511.995"
           r="157.397"
           id="circle9">
          <title
             id="title9">Grid Circle 1</title>
        </circle>
        <circle
           style="fill: none; stroke: rgba(255, 0, 0, 0.6);"
           cx="512"
           cy="511.995"
           r="222.577"
           id="circle10">
          <title
             id="title10">Grid Circle 2</title>
        </circle>
        <circle
           style="fill: none; stroke: rgba(255, 0, 0, 0.6);"
           cx="512"
           cy="511.995"
           r="358.001"
           id="circle11">
          <title
             id="title11">Grid Circle 3</title>
        </circle>
        <path
           d="M 1084.343 548.001 L 143.343 548.001 C 114.624 548.001 91.343 524.72 91.343 496.001 C 91.343 467.282 114.624 444.001 143.343 444.001 L 1084.343 444.001 C 1113.062 444.001 1136.343 467.282 1136.343 496.001 C 1136.343 524.72 1113.062 548.001 1084.343 548.001 Z M 1136.3 496.039 L 91.3 495.961"
           style="stroke-width: 5px; fill: rgba(0, 195, 255, 0.37); stroke: rgb(0, 119, 255); stroke-dasharray: 24, 10;"
           transform="matrix(0.430444, -0.902617, 0.902617, 0.430444, -98.093403, 836.54613)"
           id="path12">
          <title
             id="title12">Tool Angle</title>
        </path>
      </g>
    </symbol>
  </defs>
  <rect
     style="fill:#e0c4a0;fill-opacity:1;stroke-width:0.2;stroke-linejoin:round"
     id="rect17"
     width="832.49133"
     height="832.49133"
     x="95.570801"
     y="95.650818"
     ry="207.35947"
     rx="207.35947" />
  <g
     id="g29"
     transform="matrix(101.0061,0,0,101.0061,-69.648057,-117.93032)">
    <path
       style="fill:#fdf9ea;fill-opacity:1;stroke-width:0.0529167;stroke-linejoin:round"
       d="m 7.3668314,5.9250479 c 0.286755,-0.2122624 1.254725,-0.7967587 0.788375,-2.866779 l 0.135461,8.518e-4 0.2427,0.8158623 -0.08082,1.245667 -0.382418,0.7208814 -0.465936,0.4175837 z"
       id="path23"
       sodipodi:nodetypes="cccccccc" />
    <path
       style="fill:#fdf9ea;fill-opacity:1;stroke-width:0.052917;stroke-linejoin:round"
       d="M 4.1446939,5.9250479 C 3.857936,5.7127855 2.8899561,5.1282892 3.3563108,3.0582689 L 3.2208484,3.0591207 2.978146,3.874983 3.0589668,5.12065 3.4413887,5.8415314 3.9073295,6.2591151 Z"
       id="path25"
       sodipodi:nodetypes="cccccccc" />
    <path
       style="fill:#f57b27;fill-opacity:1;stroke-width:0.0529167;stroke-linejoin:round"
       d="M 3.6756412,6.8335865 5.1769596,7.3660737 5.5911164,7.8985612 6.0126686,7.8689784 6.3232862,7.3734694 7.8246046,6.8557734 7.4622172,6.1014167 6.7078605,5.3914335 7.0554563,4.3782285 8.1795961,3.0691974 8.1204307,2.7289972 7.3069087,3.3946064 6.6856733,4.1193806 6.2567253,4.9550898 5.2139378,4.9255073 4.6814506,3.897511 3.8013675,3.0322193 3.3502323,2.7363929 3.3206498,3.0618018 4.1489634,3.9418848 4.5927027,4.6592637 4.7554072,5.3174769 4.1341718,6.0200645 Z"
       id="path21" />
    <path
       style="fill:#fdf9ea;fill-opacity:1;stroke-width:0.0529167;stroke-linejoin:round"
       d="m 4.8964613,7.9366522 0.391717,0.1987817 0.1490863,0.222168 0.4092565,0.058465 L 6.1534634,8.2582109 6.4574824,8.0243502 6.6094921,7.9600385 6.273317,9.3193547 5.7500535,9.6818389 5.1741712,9.2696591 Z"
       id="path17" />
    <path
       style="fill:#fdf9ea;fill-opacity:1;stroke-width:0.0529167;stroke-linejoin:round"
       d="M 3.7626947,7.1677468 4.1575912,6.9740239 5.16346,7.3763716 5.0815,7.7563664 5.118754,8.0022456 Z"
       id="path18" />
    <path
       style="fill:#fdf9ea;fill-opacity:1;stroke-width:0.0529167;stroke-linejoin:round"
       d="M 6.3257974,7.3912735 7.406175,6.9516714 7.7042102,7.1826487 6.4003062,8.0320491 6.3928555,7.6595051 Z"
       id="path19" />
    <path
       style="fill:#f57b27;fill-opacity:1;stroke-width:0.0529167;stroke-linejoin:round"
       d="M 4.4004882,7.6148472 4.8831557,7.9023937 5.2015106,9.2066226 4.0975376,8.4620824 Z"
       id="path27" />
    <path
       style="fill:#fdf9ea;fill-opacity:1;stroke-width:0.0529167;stroke-linejoin:round"
       d="m 5.3054347,7.1956874 0.160458,0.4511424 0.551138,0.023254 0.174411,-0.4627698 0.24185,0.4790483 L 6.2658567,8.1072734 5.9672203,8.4055746 5.4993481,8.3759812 5.3031097,8.1607597 5.0566087,7.6747352 Z"
       id="path20"
       sodipodi:nodetypes="ccccccccccc" />
    <path
       style="fill:#f57b27;fill-opacity:1;stroke-width:0.0529167;stroke-linejoin:round"
       d="m 7.3668314,5.9250479 c 0.539837,-0.2444338 0.997353,-0.4964917 1.077918,-1.792252 l 0.0078,0.9878541 -0.382418,0.7208814 -0.465936,0.4175837 z"
       id="path22"
       sodipodi:nodetypes="cccccc" />
    <path
       style="fill:#f57b27;fill-opacity:1;stroke-width:0.052917;stroke-linejoin:round"
       d="M 4.1446939,5.9250479 C 3.6048514,5.6806141 3.1473307,5.4285562 3.0667649,4.1327959 l -0.0078,0.9878541 0.3824219,0.7208814 0.4659408,0.4175837 z"
       id="path26"
       sodipodi:nodetypes="cccccc" />
    <path
       style="fill:#f57b27;fill-opacity:1;stroke-width:0.0529167;stroke-linejoin:round"
       d="M 6.6084346,7.9075285 7.1065061,7.6045776 7.4094569,8.4569477 6.3825053,9.237431 Z"
       id="path28" />
    <path
       style="fill:#000000;stroke-width:0.0458862"
       d="m 5.6668261,9.7165811 c -0.10505,-0.07973 -0.935683,-0.685997 -1.353689,-0.988044 -0.170273,-0.123039 -0.311573,-0.225472 -0.313998,-0.22763 -0.0024,-0.0022 0.06746,-0.198848 0.155301,-0.437087 0.08784,-0.238238 0.158117,-0.4342911 0.156169,-0.4356722 -0.0019,-0.0014 -0.08003,-0.050726 -0.173512,-0.1096501 -0.324613,-0.2046141 -0.504357,-0.3263908 -0.500194,-0.3388796 0.0023,-0.00691 0.06572,-0.046357 0.140929,-0.087666 l 0.136744,-0.075107 -0.06478,-0.018499 c -0.03563,-0.010174 -0.119413,-0.033155 -0.186187,-0.051067 -0.06677,-0.017913 -0.1234,-0.034413 -0.125835,-0.036668 -0.0057,-0.00528 0.156696,-0.3155099 0.24723,-0.4722685 l 0.06982,-0.1208966 -0.07133,-0.06098 c -0.296314,-0.253326 -0.473277,-0.4742495 -0.61217,-0.7642436 -0.158789,-0.3315348 -0.217298,-0.6108839 -0.2177,-1.0393971 -4e-4,-0.4249162 0.05889,-0.7865175 0.20802,-1.268704 0.06279,-0.2030362 0.180553,-0.5047258 0.199909,-0.5121533 0.01743,-0.00669 0.134121,0.070258 0.338985,0.2235302 0.541624,0.4052224 1.011901,0.9009237 1.317837,1.3890836 0.07199,0.1148739 0.216791,0.4038105 0.255317,0.5094703 0.02316,0.063511 0.03014,0.072357 0.05264,0.066711 0.01427,-0.00358 0.110372,-0.01216 0.213568,-0.019065 0.174659,-0.011687 0.532419,-0.0016 0.636834,0.017964 l 0.03642,0.00682 0.06677,-0.1603751 C 6.5019145,4.1729383 6.9319885,3.6288972 7.5368655,3.1160855 c 0.229333,-0.1944273 0.599698,-0.4574326 0.623469,-0.4427414 0.01549,0.00957 0.119113,0.2762839 0.177219,0.4561419 0.0643,0.1990148 0.145775,0.5269701 0.174948,0.7041614 0.06921,0.4203916 0.06788,0.8506505 -0.0037,1.1859188 -0.05493,0.2572544 -0.18968,0.5629521 -0.344233,0.7808765 -0.08113,0.1144029 -0.295935,0.3414385 -0.431656,0.4562419 l -0.07062,0.059738 0.06307,0.1092664 c 0.113449,0.1965359 0.25547,0.4773469 0.244766,0.4839623 -0.0058,0.00356 -0.08111,0.026165 -0.16745,0.05023 -0.08634,0.024065 -0.167385,0.04684 -0.180109,0.050612 -0.01702,0.00504 0.01386,0.026548 0.116749,0.081319 0.07693,0.040954 0.141979,0.078372 0.144541,0.083151 0.0057,0.0106 -0.126543,0.1016447 -0.435901,0.3001388 -0.128791,0.082637 -0.236305,0.1537106 -0.238919,0.1579414 -0.0026,0.00425 0.06585,0.1986886 0.152138,0.4321306 0.08629,0.233441 0.15556,0.427917 0.153935,0.432168 -0.0016,0.0042 -0.101296,0.07839 -0.22149,0.164745 -0.120193,0.08636 -0.404286,0.292762 -0.631317,0.458675 -0.227032,0.165913 -0.5111244,0.372634 -0.6313174,0.45938 -0.120175,0.08675 -0.229793,0.167785 -0.243578,0.180088 -0.01378,0.0123 -0.02744,0.02203 -0.03035,0.02161 -0.0029,-4.13e-4 -0.04353,-0.02978 -0.09027,-0.06526 z m 0.32386,-0.298504 0.233831,-0.170268 0.148833,-0.58549 c 0.08186,-0.322021 0.1475954,-0.589366 0.1460804,-0.594103 -0.0015,-0.0047 -0.05386,0.0232 -0.1163244,0.06208 -0.09882,0.06151 -0.123574,0.08422 -0.190598,0.174862 -0.04237,0.05729 -0.0896,0.112377 -0.104963,0.122405 -0.01536,0.01003 -0.07907,0.03288 -0.141579,0.05078 -0.100252,0.02871 -0.128152,0.03181 -0.236744,0.02628 -0.150471,-0.0076 -0.316136,-0.05292 -0.350353,-0.09573 -0.01255,-0.0157 -0.05011,-0.06663 -0.08347,-0.113177 -0.04999,-0.06975 -0.08138,-0.09793 -0.178484,-0.160261 -0.0648,-0.04159 -0.119125,-0.0718 -0.120717,-0.06712 -0.0016,0.0047 0.06409,0.272175 0.145969,0.594443 l 0.148862,0.585941 0.230394,0.169337 c 0.126716,0.09313 0.231529,0.169553 0.232916,0.169817 0.0014,2.76e-4 0.107745,-0.07614 0.236352,-0.169788 z m -1.047952,-0.901148 c -0.08,-0.315507 -0.149486,-0.577738 -0.154408,-0.582736 -0.005,-0.005 -0.08244,-0.05512 -0.17226,-0.111376 -0.156191,-0.09783 -0.163757,-0.101138 -0.173538,-0.0759 -0.01588,0.04099 -0.214056,0.578426 -0.235041,0.637422 -0.01051,0.02957 -0.01407,0.05691 -0.0081,0.0625 0.0224,0.02105 0.880087,0.643742 0.886682,0.643742 0.0012,0 -0.06331,-0.258141 -0.143315,-0.573649 z m 1.9503044,0.240672 c 0.227031,-0.164918 0.417179,-0.30634 0.422551,-0.314271 0.0084,-0.01236 -0.231841,-0.689749 -0.2516,-0.709508 -0.0047,-0.0047 -0.288321,0.164239 -0.332762,0.198193 -0.0062,0.0047 -0.07489,0.263201 -0.194392,0.731416 -0.09947,0.389731 -0.107027,0.42719 -0.08301,0.411397 0.01453,-0.0096 0.212178,-0.152309 0.43921,-0.317227 z M 5.9371281,8.3315941 c 0.06011,-0.01794 0.157155,-0.08631 0.142827,-0.100639 -0.0036,-0.0036 -0.07798,-0.02706 -0.165304,-0.05213 l -0.158764,-0.04559 -0.147726,0.04297 c -0.08125,0.02363 -0.155423,0.04524 -0.16483,0.04803 -0.01258,0.0037 -0.0081,0.0145 0.01712,0.04078 0.03111,0.03246 0.12788,0.07323 0.212448,0.08949 0.05115,0.0098 0.196778,-0.0028 0.264231,-0.02292 z m -0.41163,-0.291188 c 0.08197,-0.02337 0.151403,-0.0425 0.15429,-0.0425 0.0029,0 0.0052,-0.02743 0.0052,-0.06095 0,-0.05892 -0.0019,-0.06226 -0.05687,-0.100161 -0.03128,-0.02157 -0.08454,-0.06135 -0.118372,-0.08841 -0.05551,-0.04441 -0.06185,-0.05451 -0.0651,-0.1036082 -0.0047,-0.071584 0.03228,-0.126901 0.112534,-0.1681998 0.05403,-0.027804 0.07445,-0.031072 0.194251,-0.031072 0.157696,0 0.22807,0.02128 0.285068,0.086195 0.03016,0.034357 0.03699,0.052806 0.03699,0.1000267 0,0.066537 -0.02024,0.090367 -0.15942,0.1876603 l -0.08051,0.05628 0.0061,0.05808 c 0.0034,0.03195 0.0095,0.06152 0.01373,0.06572 0.01053,0.01055 0.246681,0.07128 0.277158,0.07128 0.01361,0 0.05203,-0.02172 0.08538,-0.04828 0.05845,-0.04654 0.06201,-0.05299 0.09878,-0.179075 l 0.03815,-0.130799 -0.07403,-0.1942519 c -0.04071,-0.1068376 -0.08475,-0.217824 -0.09786,-0.2466355 -0.01311,-0.028812 -0.05429,-0.1297514 -0.09152,-0.2243104 l -0.06768,-0.1719165 0.02101,-0.091348 c 0.04861,-0.2113581 0.151958,-0.3573949 0.307223,-0.4341307 0.08985,-0.044407 0.09619,-0.045696 0.2206164,-0.044879 0.220706,0.00145 0.465438,0.077619 1.048092,0.3262038 l 0.04585,0.019563 -0.0356,-0.070108 C 7.5724505,6.4693559 7.4216845,6.2403263 7.2981665,6.0781673 7.1745915,5.9159354 6.8757135,5.6008407 6.7403945,5.490132 6.6433055,5.4107004 6.6467625,5.4351439 6.7001415,5.2055497 6.8137235,4.7170156 7.0391975,4.2640042 7.4192225,3.7608048 7.5769985,3.5518904 7.7100315,3.3992075 7.9289565,3.1757827 l 0.186613,-0.1904489 -0.01428,-0.043259 c -0.0079,-0.023793 -0.01748,-0.043259 -0.02138,-0.043259 -0.01283,0 -0.276571,0.2021567 -0.429733,0.3293923 -0.180364,0.1498324 -0.539588,0.5055968 -0.674927,0.6684263 -0.279766,0.3365947 -0.477718,0.6678572 -0.6044214,1.0114691 -0.02462,0.066774 -0.04608,0.1228139 -0.04769,0.1245328 -0.0016,0.00172 -0.07618,-0.00591 -0.165717,-0.016964 -0.206559,-0.02549 -0.602548,-0.02532 -0.812215,3.671e-4 -0.08341,0.010211 -0.155136,0.014691 -0.159398,0.00996 -0.0043,-0.00474 -0.01453,-0.030462 -0.02281,-0.057171 C 5.0684881,4.6641336 4.8596171,4.2956096 4.5917061,3.9608528 4.4484601,3.7818637 4.0917371,3.4182406 3.8969581,3.2526649 3.7680921,3.1431192 3.4497411,2.8988161 3.4358591,2.8988161 c -0.0039,0 -0.01348,0.019291 -0.02126,0.042874 l -0.01415,0.042874 0.175228,0.1803717 c 0.316221,0.3255042 0.497681,0.5484254 0.727171,0.8933219 0.24562,0.369139 0.410517,0.7312498 0.500338,1.0987345 0.06678,0.2732021 0.07514,0.239199 -0.09597,0.3903508 -0.220426,0.1947184 -0.455587,0.4668163 -0.633206,0.7326647 -0.07369,0.1102883 -0.222504,0.3617633 -0.217252,0.3671146 0.0016,0.00159 0.06512,-0.024636 0.14123,-0.058283 0.327957,-0.1449755 0.663233,-0.2556667 0.849518,-0.2804691 0.320441,-0.042664 0.546718,0.128278 0.623523,0.4710435 0.01834,0.081846 0.01816,0.090213 -0.0033,0.1517588 -0.02546,0.073066 -0.117175,0.3070257 -0.134996,0.3443738 -0.0064,0.013355 -0.04711,0.1167844 -0.09052,0.229844 l -0.07894,0.2055618 0.03627,0.125525 c 0.01995,0.06904 0.03627,0.127843 0.03627,0.130675 0,0.0047 0.132587,0.115752 0.1382,0.115752 0.0013,0 0.06949,-0.01912 0.151467,-0.0425 z m -0.49238,-0.228406 -0.03066,-0.106999 0.04385,-0.1159605 c 0.02412,-0.063778 0.04385,-0.1231886 0.04385,-0.1320238 0,-0.00884 -0.08605,-0.059054 -0.191216,-0.1115992 -0.185481,-0.092668 -0.403588,-0.1761348 -0.628287,-0.240435 l -0.109277,-0.031268 -0.118372,0.057936 c -0.06511,0.031865 -0.118254,0.060887 -0.11811,0.064491 1.42e-4,0.00361 0.151454,0.1021627 0.336245,0.2190168 0.184791,0.1168548 0.440084,0.2786397 0.567317,0.3595217 0.127233,0.08088 0.232231,0.146441 0.233329,0.145688 0.0011,-7.57e-4 -0.0118,-0.04952 -0.02867,-0.108369 z M 7.0363925,7.5547775 c 0.304552,-0.1936445 0.553958,-0.3550299 0.554234,-0.3586352 2.75e-4,-0.00361 -0.05323,-0.032991 -0.118901,-0.065304 l -0.119403,-0.058749 -0.126446,0.038967 c -0.248447,0.076564 -0.40819,0.1372198 -0.575652,0.2185798 -0.09348,0.04542 -0.183245,0.093374 -0.199472,0.1065703 l -0.0295,0.023994 0.04543,0.1210956 0.04543,0.1210951 -0.01869,0.07795 c -0.01028,0.04287 -0.02237,0.09098 -0.02687,0.106895 -0.005,0.01748 -0.0034,0.0271 0.004,0.02428 0.0067,-0.0026 0.261329,-0.163097 0.565881,-0.3567412 z M 5.2251641,7.1086814 c 0.03488,-0.091773 0.06062,-0.16967 0.05718,-0.1731046 -0.0034,-0.00343 -0.05218,-0.01186 -0.10833,-0.018723 -0.132558,-0.016204 -0.268443,-0.053383 -0.342581,-0.093735 -0.07795,-0.042428 -0.168937,-0.1435594 -0.202924,-0.2255594 l -0.02733,-0.065942 -0.116704,0.039652 c -0.21955,0.074595 -0.608551,0.2408161 -0.60831,0.2599327 5e-5,0.004 0.09156,0.031104 0.203357,0.06023 0.427968,0.1114974 0.653685,0.1920772 0.931708,0.3326141 0.07345,0.037128 0.137364,0.063904 0.142028,0.059501 0.0047,-0.0044 0.03702,-0.083093 0.07191,-0.1748655 z m 1.2965834,0.1079413 c 0.235179,-0.120125 0.469226,-0.2053057 0.838709,-0.3052462 0.09014,-0.024383 0.193375,-0.05251 0.229401,-0.062504 l 0.0655,-0.018171 -0.0655,-0.03081 c -0.208909,-0.098264 -0.616873,-0.2589362 -0.657167,-0.2588187 -0.0085,2.47e-5 -0.03358,0.035256 -0.05583,0.078292 -0.08915,0.1724181 -0.248904,0.2604269 -0.5471144,0.3014101 l -0.10788,0.014826 0.05177,0.133548 c 0.07634,0.1969219 0.08997,0.2271805 0.10021,0.2225093 0.0051,-0.00232 0.07166,-0.036094 0.1478974,-0.075036 z M 5.1089051,6.6447761 c 0.06259,-0.062586 0.01632,-0.1693081 -0.0734,-0.1693081 -0.03475,0 -0.0525,0.00798 -0.07442,0.033457 -0.0594,0.069055 -0.016,0.1656508 0.07442,0.1656508 0.0301,0 0.05282,-0.00923 0.0734,-0.0298 z m 1.4447454,0 c 0.04229,-0.042289 0.03962,-0.095795 -0.0071,-0.1425243 -0.03102,-0.031026 -0.04311,-0.035667 -0.07584,-0.029123 -0.05792,0.011584 -0.08702,0.046928 -0.08702,0.1056791 0,0.03755 0.007,0.055451 0.02839,0.072783 0.04061,0.032889 0.1049784,0.029791 0.1415844,-0.00681 z M 3.9981471,6.102977 c 0.04646,-0.068412 0.213985,-0.2724417 0.344585,-0.4196661 l 0.05544,-0.062501 -0.05528,-0.07354 c -0.06044,-0.0804 -0.184373,-0.192492 -0.298575,-0.270045 -0.04015,-0.027263 -0.07063,-0.051934 -0.06774,-0.054823 0.0075,-0.00745 0.209457,0.070921 0.297958,0.1155965 0.04085,0.020624 0.115826,0.062059 0.166602,0.092078 l 0.09232,0.054581 0.04318,-0.032934 0.04318,-0.032934 -0.04711,-0.041144 C 4.4486181,5.2692623 4.0815851,5.0070604 3.9331951,4.920788 c -0.03202,-0.018616 -0.05558,-0.036481 -0.05236,-0.039701 0.0032,-0.00322 0.06766,0.014401 0.143201,0.039157 0.156316,0.051228 0.412436,0.1717492 0.537758,0.2530498 0.04661,0.03024 0.08649,0.053244 0.08861,0.051121 0.04619,-0.046188 -0.342001,-0.3749468 -0.717549,-0.6076905 -0.09697,-0.060097 -0.171844,-0.1108954 -0.166387,-0.1128864 0.0055,-0.002 0.07814,0.018572 0.161509,0.045695 0.155634,0.050634 0.345896,0.1388427 0.506572,0.2348577 0.05008,0.029927 0.0928,0.052778 0.09494,0.05078 0.0022,-0.002 -0.007,-0.024649 -0.02022,-0.050337 C 4.4753491,4.7190986 4.3831141,4.6362517 4.1370971,4.450531 4.0204411,4.362467 3.7514361,4.1789694 3.7249481,4.1693912 c -0.007,-0.00255 -0.01004,-0.00754 -0.0067,-0.011095 0.01718,-0.018333 0.371903,0.1236334 0.523362,0.2094599 0.04787,0.027127 0.08908,0.047287 0.09157,0.044796 0.008,-0.00803 -0.181236,-0.301031 -0.299449,-0.4635665 -0.162743,-0.2237632 -0.330622,-0.4222345 -0.526371,-0.6222944 -0.09315,-0.095199 -0.170865,-0.1715811 -0.172708,-0.1697389 -0.0019,0.00185 -0.02548,0.077001 -0.05252,0.1670181 -0.0591,0.1966994 -0.115413,0.4567513 -0.147181,0.6796481 -0.02994,0.2100628 -0.03239,0.5990583 -0.005,0.7875886 0.06856,0.471355 0.243516,0.8391427 0.547009,1.1499218 0.07848,0.080359 0.254943,0.2356778 0.26777,0.2356778 0.0018,0 0.02582,-0.033224 0.05339,-0.07383 z M 7.8045675,5.9656595 c 0.13262,-0.1328676 0.205358,-0.2171384 0.263892,-0.3057344 0.236045,-0.3572779 0.335881,-0.7377091 0.335894,-1.2799439 8e-6,-0.3279574 -0.05613,-0.6680305 -0.178005,-1.0782975 l -0.04442,-0.1495334 -0.150768,0.1495334 c -0.311054,0.3085071 -0.618183,0.7040631 -0.820745,1.0570513 -0.03671,0.063976 -0.03393,0.069295 0.01718,0.032897 0.09482,-0.067516 0.557619,-0.2586743 0.577683,-0.2386101 0.003,0.00299 -0.02072,0.020599 -0.05274,0.039081 -0.1661,0.095883 -0.460995,0.3139922 -0.644474,0.476667 -0.08211,0.072804 -0.130684,0.1365069 -0.121675,0.1595863 0.0021,0.00531 0.06641,-0.027819 0.142964,-0.07363 0.07655,-0.045809 0.196747,-0.1074928 0.267095,-0.1370698 0.125401,-0.052723 0.349381,-0.1234433 0.359359,-0.1134648 0.0028,0.0028 -0.05635,0.041737 -0.13141,0.086565 -0.314375,0.1877725 -0.738896,0.5253769 -0.753005,0.5988356 -0.0036,0.018793 -0.0057,0.035042 -0.0046,0.03611 0.0011,0.00107 0.05387,-0.030806 0.1173,-0.07083 0.06344,-0.040025 0.165566,-0.096982 0.226956,-0.1265731 0.116837,-0.056315 0.396533,-0.155181 0.418397,-0.1478929 0.007,0.00232 -0.03292,0.0322 -0.08869,0.066383 -0.143474,0.087951 -0.358334,0.2399029 -0.512434,0.362402 l -0.131812,0.104781 0.03392,0.035407 c 0.01866,0.019474 0.03826,0.035408 0.04356,0.035408 0.0053,0 0.03842,-0.018397 0.07361,-0.040883 0.128189,-0.081919 0.445324,-0.2262128 0.497181,-0.2262128 0.007,0 -0.02016,0.021939 -0.06031,0.048753 -0.106535,0.071142 -0.253046,0.2019799 -0.315775,0.2819971 l -0.05466,0.069725 0.08431,0.094175 c 0.122696,0.1370528 0.24685,0.2888341 0.312806,0.382413 0.05283,0.074952 0.0599,0.080687 0.08401,0.068089 0.01448,-0.00757 0.108713,-0.096299 0.20941,-0.197183 z"
       id="path1"
       sodipodi:nodetypes="cscscssscsssscssscssssssscssssscsscscscscscscsscscccccscscsscssscccccccccscccsccscccscssccccsccsccssssccsscsscccsccccsccssssccsssssccsssscccccsssccsssssccssccccsssssccsscscssssssccsscssscccsccccccssscsssscccssscsscscscsscscsccsssccccscsscsscccsscsscscssccsccscssccscsscccssscsscccscsssccsssccsccscscscssscc" />
    <ellipse
       style="fill:#fdf9ea;fill-opacity:1;stroke-width:0.0529167;stroke-linejoin:round"
       id="ellipse16"
       cx="6.4848571"
       cy="6.5767417"
       rx="0.10737052"
       ry="0.10737008" />
    <ellipse
       style="fill:#fdf9ea;fill-opacity:1;stroke-width:0.0529167;stroke-linejoin:round"
       id="path16"
       cx="5.0355048"
       cy="6.5828385"
       rx="0.10737052"
       ry="0.10737008" />
  </g>
  <rect
     style="fill:url(#grad3d);stroke-width:0"
     width="832.49133"
     height="832.49133"
     x="95.570801"
     y="95.650818"
     ry="207.35947"
     rx="207.35947" />
</svg>
