<?xml version="1.0" encoding="UTF-8" standalone="no"?>
<!-- Created with Inkscape (http://www.inkscape.org/) -->

<svg
   width="48"
   height="48"
   viewBox="0 0 12.7 12.7"
   version="1.1"
   id="svg1"
   inkscape:version="1.4 (e7c3feb1, 2024-10-09)"
   sodipodi:docname="tool_mouse.svg"
   xml:space="preserve"
   xmlns:inkscape="http://www.inkscape.org/namespaces/inkscape"
   xmlns:sodipodi="http://sodipodi.sourceforge.net/DTD/sodipodi-0.dtd"
   xmlns="http://www.w3.org/2000/svg"
   xmlns:svg="http://www.w3.org/2000/svg"><sodipodi:namedview
     id="namedview1"
     pagecolor="#23456d"
     bordercolor="#000000"
     borderopacity="0.25"
     inkscape:showpageshadow="2"
     inkscape:pageopacity="0.0"
     inkscape:pagecheckerboard="false"
     inkscape:deskcolor="#d1d1d1"
     inkscape:document-units="px"
     inkscape:zoom="3.847521"
     inkscape:cx="-4.5483833"
     inkscape:cy="24.56127"
     inkscape:window-width="1648"
     inkscape:window-height="1056"
     inkscape:window-x="82"
     inkscape:window-y="33"
     inkscape:window-maximized="1"
     inkscape:current-layer="layer1"><sodipodi:guide
       position="0,12.170834"
       orientation="0,1"
       id="guide1"
       inkscape:locked="false"
       inkscape:label=""
       inkscape:color="rgb(0,134,229)" /><sodipodi:guide
       position="12.170834,12.7"
       orientation="-1,0"
       id="guide2"
       inkscape:locked="false"
       inkscape:label=""
       inkscape:color="rgb(0,134,229)" /><sodipodi:guide
       position="12.7,0.52916667"
       orientation="0,1"
       id="guide3"
       inkscape:locked="false"
       inkscape:label=""
       inkscape:color="rgb(0,134,229)" /><sodipodi:guide
       position="0.52916667,12.7"
       orientation="-1,0"
       id="guide4"
       inkscape:locked="false"
       inkscape:label=""
       inkscape:color="rgb(0,134,229)" /></sodipodi:namedview><defs
     id="defs1" /><g
     inkscape:label="Layer 1"
     inkscape:groupmode="layer"
     id="layer1"><path
       style="fill:#d6e4f0;fill-opacity:1;stroke:none;stroke-width:0.79375;stroke-linecap:butt;stroke-linejoin:round;stroke-dasharray:none;stroke-opacity:1"
       d="M 1.9867029,0.84727036 2.8631896,11.043731 3.47673,11.160596 5.5218655,9.1154603 7.1871897,11.97865 9.1738928,10.780785 7.5962168,7.9468116 10.313325,7.1871897 10.66392,6.4860005 Z"
       id="path3" /><g
       id="g2"
       transform="matrix(0.09474273,0,0,0.09474273,1.7983414,0.52882572)"
       style="fill:#0f1b2d;fill-opacity:1"><path
         d="m 61.61,122.31 c -1.34,0.62 -2.82,0.72 -4.15,0.37 -1.46,-0.39 -2.75,-1.31 -3.55,-2.67 L 39.03,94.36 24.88,110.24 c -1.97,2.21 -4.21,3.88 -6.37,4.75 -1.66,0.67 -3.31,0.88 -4.84,0.56 -1.69,-0.36 -3.14,-1.33 -4.2,-3.01 -0.84,-1.33 -1.4,-3.11 -1.57,-5.39 L 0.01,4.41 C 0,4.33 0,4.25 0,4.18 -0.01,3.54 0.11,2.91 0.37,2.34 0.66,1.68 1.13,1.08 1.74,0.64 2,0.44 2.28,0.31 2.58,0.23 3.17,0.03 3.78,-0.04 4.37,0.03 4.94,0.09 5.5,0.26 6.01,0.55 6.18,0.63 6.35,0.73 6.5,0.85 l 84.88,58.11 c 1.88,1.29 3.14,2.66 3.88,4.05 0.93,1.75 1.04,3.49 0.5,5.14 -0.48,1.49 -1.5,2.81 -2.9,3.91 -1.82,1.43 -4.39,2.54 -7.3,3.14 -0.03,0.01 -0.07,0.01 -0.1,0.02 l -20.73,4.29 14.77,25.73 c 0.78,1.36 0.93,2.94 0.54,4.39 -0.38,1.41 -1.27,2.71 -2.59,3.56 -0.05,0.04 -0.11,0.07 -0.17,0.1 l -15.34,8.86 c -0.1,0.06 -0.21,0.11 -0.33,0.16 z m -2.77,-4.83 c 0.15,0.04 0.3,0.04 0.44,-0.01 0.05,-0.03 0.1,-0.06 0.16,-0.08 l 15.14,-8.74 c 0.14,-0.1 0.23,-0.25 0.28,-0.41 0.03,-0.13 0.03,-0.25 -0.01,-0.33 L 58.23,78.97 h 0.01 C 58.1,78.73 58,78.46 57.94,78.17 57.64,76.72 58.58,75.3 60.03,75 l 24.36,-5.04 c 0.03,-0.01 0.06,-0.02 0.1,-0.02 2.1,-0.44 3.88,-1.18 5.07,-2.11 0.58,-0.46 0.97,-0.91 1.11,-1.35 0.09,-0.27 0.05,-0.6 -0.15,-0.97 -0.34,-0.64 -1.03,-1.34 -2.15,-2.11 L 5.58,6.74 13.27,106.76 c 0.1,1.36 0.37,2.32 0.75,2.92 0.22,0.35 0.49,0.55 0.77,0.61 0.45,0.1 1.04,-0.01 1.72,-0.28 1.39,-0.56 2.92,-1.73 4.35,-3.34 L 37.48,88.02 v 0 c 0.19,-0.21 0.41,-0.39 0.66,-0.54 1.28,-0.74 2.93,-0.31 3.67,0.98 l 16.75,28.85 c 0.06,0.08 0.15,0.14 0.28,0.17 z m 0.59,-0.09 c 0.35,-0.17 0.75,-0.27 1.17,-0.27 z"
         id="path1"
         style="fill:#0f1b2d;fill-opacity:1" /></g></g></svg>
