<?xml version="1.0" encoding="UTF-8" standalone="no"?>
<!-- Created with Inkscape (http://www.inkscape.org/) -->

<svg
   width="48"
   height="48"
   viewBox="0 0 12.7 12.7"
   version="1.1"
   id="svg1"
   inkscape:version="1.4 (e7c3feb1, 2024-10-09)"
   sodipodi:docname="tool_hole.svg"
   xml:space="preserve"
   xmlns:inkscape="http://www.inkscape.org/namespaces/inkscape"
   xmlns:sodipodi="http://sodipodi.sourceforge.net/DTD/sodipodi-0.dtd"
   xmlns="http://www.w3.org/2000/svg"
   xmlns:svg="http://www.w3.org/2000/svg"><sodipodi:namedview
     id="namedview1"
     pagecolor="#23456d"
     bordercolor="#000000"
     borderopacity="0.25"
     inkscape:showpageshadow="2"
     inkscape:pageopacity="0.0"
     inkscape:pagecheckerboard="false"
     inkscape:deskcolor="#d1d1d1"
     inkscape:document-units="px"
     inkscape:zoom="4.556864"
     inkscape:cx="0.21944916"
     inkscape:cy="-8.4487928"
     inkscape:window-width="1648"
     inkscape:window-height="1056"
     inkscape:window-x="82"
     inkscape:window-y="33"
     inkscape:window-maximized="1"
     inkscape:current-layer="layer1"><sodipodi:guide
       position="9.8836386,12.164543"
       orientation="0,1"
       id="guide1"
       inkscape:locked="false"
       inkscape:label=""
       inkscape:color="rgb(0,134,229)" /><sodipodi:guide
       position="12.170834,12.7"
       orientation="-1,0"
       id="guide2"
       inkscape:locked="false"
       inkscape:label=""
       inkscape:color="rgb(0,134,229)" /><sodipodi:guide
       position="0.52916667,12.7"
       orientation="-1,0"
       id="guide4"
       inkscape:locked="false"
       inkscape:label=""
       inkscape:color="rgb(0,134,229)" /></sodipodi:namedview><defs
     id="defs1" /><g
     inkscape:label="Layer 1"
     inkscape:groupmode="layer"
     id="layer1"><g
       id="g1"
       transform="translate(-158.71374,106.37803)"><path
         style="fill:#b9b9b9;fill-opacity:1"
         d="m -33.403649,64.361202 c 1.346068,-0.04802 3.548724,-0.04802 4.894792,0 1.346067,0.04802 0.244739,0.08731 -2.447396,0.08731 -2.692135,0 -3.793464,-0.03929 -2.447396,-0.08731 z M 43.677135,26.303994 c 0.0127,-0.308224 0.07539,-0.370919 0.159853,-0.159852 0.07643,0.190996 0.06703,0.419199 -0.02089,0.507118 -0.08792,0.08792 -0.150452,-0.06835 -0.138964,-0.347266 z m 2.360362,-6.824721 c 0,-0.05494 0.208359,-0.263302 0.463021,-0.463021 0.419644,-0.329107 0.429002,-0.319749 0.0999,0.0999 -0.345644,0.440729 -0.562916,0.580887 -0.562916,0.363126 z M 43.677135,3.8144107 c 0.0127,-0.3082245 0.07539,-0.3709192 0.159853,-0.1598524 0.07643,0.1909961 0.06703,0.4191992 -0.02089,0.5071181 -0.08792,0.087919 -0.150452,-0.068351 -0.138964,-0.3472657 z m 9.260417,-7.6729166 c 0.0127,-0.3082245 0.07539,-0.3709192 0.159852,-0.1598525 0.07643,0.1909961 0.06703,0.4191993 -0.02089,0.5071181 -0.08792,0.087919 -0.150453,-0.068351 -0.138964,-0.3472656 z M 46.037497,-13.32906 c 0,-0.05494 0.208359,-0.263302 0.463021,-0.463021 0.419644,-0.329108 0.429002,-0.319749 0.0999,0.0999 -0.345644,0.440729 -0.562916,0.580887 -0.562916,0.363126 z m -2.339474,-5.191772 c 0,-0.363802 0.06005,-0.512631 0.133452,-0.330729 0.0734,0.181901 0.0734,0.479557 0,0.661458 -0.0734,0.181901 -0.133452,0.03307 -0.133452,-0.330729 z m 3.133224,-8.037395 c 0,-0.05494 0.208359,-0.263302 0.463021,-0.463021 0.419644,-0.329107 0.429002,-0.319749 0.09989,0.0999 -0.345644,0.440729 -0.562916,0.580887 -0.562916,0.363126 z m 3.704167,-5.027083 c 0,-0.05494 0.208359,-0.263302 0.46302,-0.463021 0.419644,-0.329108 0.429003,-0.319749 0.09989,0.09989 -0.345643,0.440729 -0.562915,0.580887 -0.562915,0.363126 z m -6.879167,-1.058334 c 0,-0.05494 0.208359,-0.263301 0.463021,-0.463021 0.419644,-0.329107 0.429002,-0.319749 0.0999,0.09989 -0.345644,0.440729 -0.562916,0.580887 -0.562916,0.363126 z m 3.175,-4.233333 c 0,-0.05494 0.208359,-0.263302 0.463021,-0.463021 0.419644,-0.329107 0.429002,-0.319749 0.09989,0.0999 -0.345644,0.440729 -0.562916,0.580887 -0.562916,0.363126 z m 2.116667,-2.910417 c 0,-0.05494 0.208359,-0.263301 0.46302,-0.463021 0.419644,-0.329107 0.429003,-0.319749 0.0999,0.09989 -0.345643,0.440729 -0.562915,0.580887 -0.562915,0.363126 z m -5.270779,-1.377362 c 0.0127,-0.308224 0.07539,-0.370919 0.159853,-0.159852 0.07643,0.190996 0.06703,0.419199 -0.02089,0.507118 -0.08792,0.08792 -0.150452,-0.06835 -0.138964,-0.347266 z m 6.064529,0.319029 c 0,-0.05494 0.208359,-0.263302 0.46302,-0.463021 0.419644,-0.329107 0.429003,-0.319749 0.09989,0.0999 -0.345643,0.440729 -0.562915,0.580887 -0.562915,0.363126 z m -3.704167,-7.14375 c 0,-0.05494 0.208359,-0.263302 0.463021,-0.463021 0.419644,-0.329107 0.429002,-0.319749 0.0999,0.09989 -0.345644,0.440729 -0.562916,0.580887 -0.562916,0.363126 z m 6.900055,-0.583612 c 0.0127,-0.308225 0.07539,-0.370919 0.159852,-0.159853 0.07643,0.190996 0.06703,0.4192 -0.02089,0.507118 -0.08792,0.08792 -0.150453,-0.06835 -0.138964,-0.347265 z"
         id="path7" /><path
         style="fill:#8c8c8c;fill-opacity:1"
         d="m 43.677135,14.662327 c 0.0127,-0.308224 0.07539,-0.370919 0.159853,-0.159852 0.07643,0.190996 0.06703,0.419199 -0.02089,0.507118 -0.08792,0.08792 -0.150452,-0.06835 -0.138964,-0.347266 z m 0,-22.4895829 c 0.0127,-0.3082245 0.07539,-0.3709192 0.159853,-0.1598525 0.07643,0.1909961 0.06703,0.4191993 -0.02089,0.5071181 -0.08792,0.087919 -0.150452,-0.068351 -0.138964,-0.3472656 z m 0.02089,-22.3352431 c 0,-0.363802 0.06005,-0.51263 0.133452,-0.330729 0.0734,0.181901 0.0734,0.479557 0,0.661458 -0.0734,0.181901 -0.133452,0.03307 -0.133452,-0.330729 z m 9.239529,-7.033507 c 0.0127,-0.308224 0.07539,-0.370919 0.159852,-0.159852 0.07643,0.190996 0.06703,0.419199 -0.02089,0.507118 -0.08792,0.08792 -0.150453,-0.06835 -0.138964,-0.347266 z m -4.779609,-24.296939 c 0.17135,-0.17135 0.350258,-0.17135 0.521608,0 0.171349,0.171349 0.08189,0.260803 -0.260804,0.260803 -0.342698,0 -0.432153,-0.08945 -0.260804,-0.260803 z"
         id="path5" /><path
         style="fill:#767676;fill-opacity:1"
         d="m -33.006774,63.303334 c 1.127787,-0.0496 2.973255,-0.0496 4.101042,0 1.127786,0.0496 0.205052,0.09018 -2.050521,0.09018 -2.255573,0 -3.178307,-0.04058 -2.050521,-0.09018 z M 45.393049,-2.5682755 c -0.143585,-0.3770838 -0.113194,-0.4074748 0.148113,-0.1481124 0.180821,0.1794757 0.262115,0.39297 0.180653,0.4744318 -0.08146,0.081462 -0.229406,-0.065382 -0.328766,-0.3263194 z M -31.217057,-60.963779 c 0.17135,-0.171349 0.350258,-0.171349 0.521608,0 0.171349,0.171349 0.08189,0.260804 -0.260804,0.260804 -0.342698,0 -0.432153,-0.08946 -0.260804,-0.260804 z"
         id="path4" /><path
         style="fill:#606060;fill-opacity:1"
         d="m 46.235934,63.832321 c 1.200547,-0.04903 3.165079,-0.04903 4.365625,0 1.200547,0.04903 0.218282,0.08914 -2.182812,0.08914 -2.401094,0 -3.383359,-0.04011 -2.182813,-0.08914 z m -82.462966,-94.14916 c 0.0127,-0.308225 0.07539,-0.370919 0.159853,-0.159853 0.07643,0.190996 0.06703,0.4192 -0.02089,0.507118 -0.08792,0.08792 -0.150453,-0.06835 -0.138965,-0.347265 z"
         id="path3" /><path
         style="fill:#494949;fill-opacity:1"
         d="m -36.172245,13.361459 c 0.002,-0.727604 0.05337,-0.993857 0.114185,-0.591674 0.06082,0.402183 0.05919,0.997495 -0.0036,1.322916 -0.0628,0.325421 -0.112561,-0.0036 -0.110574,-0.731242 z m 0.779459,0.132292 c 0,-0.509323 0.05445,-0.717682 0.121,-0.463021 0.06655,0.254662 0.06655,0.67138 0,0.926042 -0.06655,0.254661 -0.121,0.0463 -0.121,-0.463021 z m 8.73125,-4.4979166 c 0,-0.509323 0.05445,-0.7176823 0.121,-0.4630209 0.06655,0.2546615 0.06655,0.6713802 0,0.9260417 -0.06655,0.2546614 -0.121,0.046302 -0.121,-0.4630208 z m 0.79375,0 c 0,-0.509323 0.05445,-0.7176823 0.121,-0.4630209 0.06655,0.2546615 0.06655,0.6713802 0,0.9260417 -0.06655,0.2546614 -0.121,0.046302 -0.121,-0.4630208 z M -36.172245,-9.128124 c 0.002,-0.7276041 0.05337,-0.993858 0.114185,-0.5916745 0.06082,0.4021831 0.05919,0.9974956 -0.0036,1.3229166 -0.0628,0.325421 -0.112561,-0.00364 -0.110574,-0.7312421 z m 0.784799,0.2645834 c 0.0029,-0.5820834 0.05712,-0.7890546 0.120406,-0.4599361 0.06329,0.3291186 0.06088,0.8053686 -0.0053,1.0583334 -0.06622,0.2529648 -0.118003,-0.016314 -0.115066,-0.5983973 z m 9.530339,-4.3656254 c 0,-0.654843 0.0516,-0.922734 0.114662,-0.595312 0.06307,0.327422 0.06307,0.863203 0,1.190625 -0.06306,0.327422 -0.114662,0.05953 -0.114662,-0.595313 z m -0.804429,-0.264583 c 0,-0.509323 0.05445,-0.717682 0.121,-0.463021 0.06655,0.254662 0.06655,0.67138 0,0.926042 -0.06655,0.254661 -0.121,0.0463 -0.121,-0.463021 z m -9.514321,-18.25625 c 0,-0.654844 0.0516,-0.922734 0.114662,-0.595312 0.06306,0.327421 0.06306,0.863203 0,1.190625 -0.06306,0.327421 -0.114662,0.05953 -0.114662,-0.595313 z m 0.773267,0.396875 c 0.0054,-0.436562 0.06469,-0.583125 0.131774,-0.325694 0.06708,0.257431 0.06267,0.614619 -0.0098,0.79375 -0.07248,0.179132 -0.127362,-0.03149 -0.12197,-0.468056 z m 9.552706,-4.365625 c 0,-0.800365 0.0496,-1.127786 0.110223,-0.727604 0.06062,0.400182 0.06062,1.055026 0,1.455208 -0.06062,0.400182 -0.110223,0.07276 -0.110223,-0.727604 z m -0.821456,-0.132292 c 0.0054,-0.436562 0.06469,-0.583124 0.131774,-0.325693 0.06708,0.257431 0.06267,0.614618 -0.0098,0.79375 -0.07248,0.179131 -0.127362,-0.03149 -0.12197,-0.468057 z m -9.482664,-19.314583 c -8.07e-4,-1.309687 0.04393,-1.878827 0.09942,-1.264754 0.05549,0.614073 0.05615,1.685635 0.0015,2.38125 -0.05468,0.695615 -0.100084,0.193192 -0.10089,-1.116496 z m 0.792284,0.132292 c 0,-1.236927 0.04558,-1.742943 0.10128,-1.124479 0.0557,0.618463 0.0557,1.630494 0,2.248958 -0.0557,0.618463 -0.10128,0.112448 -0.10128,-1.124479 z m 79.017967,-2.481145 c 0,-0.05494 0.208359,-0.263302 0.463021,-0.463021 0.419644,-0.329107 0.429002,-0.319749 0.0999,0.09989 -0.345644,0.440729 -0.562916,0.580887 -0.562916,0.363126 z m 8.962084,-0.363126 c -0.329107,-0.419644 -0.319749,-0.429002 0.0999,-0.09989 0.254662,0.199719 0.463021,0.408079 0.463021,0.463021 0,0.217761 -0.217272,0.0776 -0.562916,-0.363126 z m -85.411454,-2.862602 c 0.17013,-0.204995 0.422821,-0.302575 0.561535,-0.216845 0.308001,0.190355 0.0793,0.450108 -0.466881,0.530271 -0.318732,0.04678 -0.338706,-0.01936 -0.09465,-0.313426 z m 79.62437,0.315311 c 0,-0.05494 0.208359,-0.263301 0.463021,-0.463021 0.419644,-0.329107 0.429002,-0.319749 0.09989,0.09989 -0.345644,0.440729 -0.562916,0.580887 -0.562916,0.363126 z m 2.612084,-0.363126 c -0.329107,-0.419644 -0.319749,-0.429002 0.09989,-0.09989 0.440729,0.345644 0.580887,0.562916 0.363126,0.562916 -0.05494,0 -0.263301,-0.208359 -0.463021,-0.463021 z m -79.253056,-0.186799 c 0,-0.21188 0.101161,-0.322715 0.224802,-0.246301 0.123641,0.07641 0.156302,0.249771 0.07258,0.385237 -0.213948,0.346176 -0.297381,0.307196 -0.297382,-0.138936 z"
         id="path2" /></g><g
       id="g18"
       transform="matrix(-0.10604083,0,0,-0.10604083,6.7973132,3.4773107)"><path
         style="fill:#b5642a;fill-opacity:1;stroke-width:0.79375;stroke-linejoin:round"
         d="m 48.336927,-61.820387 -4.67469,4.356684 -0.04041,3.634255 c 0.04119,1.053345 -0.08133,4.67509 2.245866,6.414737 l 7.207525,-9.92179 z"
         id="path15"
         sodipodi:nodetypes="cccccc" /><path
         style="fill:#b5642a;fill-opacity:1;stroke-width:0.79375;stroke-linejoin:round"
         d="m 51.045892,-42.416902 c 0.763214,0.445209 2.077636,2.610746 2.085896,5.405933 l 0.007,2.380104 -7.409543,9.730987 c -0.398333,-0.510414 -2.070327,-2.008322 -2.048185,-5.497341 l 0.01294,-2.039403 z"
         id="path16"
         sodipodi:nodetypes="csccscc" /><path
         style="fill:#e8873d;fill-opacity:1;stroke-width:0.79375;stroke-linejoin:round"
         d="m 53.138788,-34.630865 -7.409543,9.730987 c -1.798318,2.361739 -2.062181,4.488185 -2.062181,5.233516 v 16.2925742 h 9.512114 z"
         id="path17"
         sodipodi:nodetypes="cssccc" /><path
         style="fill:#e8873d;fill-opacity:1;stroke-width:0.79375;stroke-linejoin:round"
         d="m 53.075218,-57.336501 -7.207526,9.92179 c -1.758738,2.421057 -2.16379,4.445063 -2.164983,5.71371 l -0.0087,9.264379 7.351893,-9.980279 c 1.864018,-2.530426 2.15053,-5.620941 2.111672,-8.602092 l -0.08235,-6.317508 z"
         id="path18"
         sodipodi:nodetypes="csscsscc" /></g><path
       id="rect18"
       style="fill:#0f1b2d;fill-opacity:1;stroke-width:0.79375;stroke-linejoin:round"
       d="M 2.8320351,4.2452189 V 10.442773 H 9.0295895 V 4.2452189 Z m 3.0985188,0.8500773 c 1.2420654,-1e-7 2.2489585,1.006893 2.2489584,2.2489584 0,1.2420654 -1.006893,2.2489584 -2.2489584,2.2489583 -1.2420654,0 -2.2489583,-1.0068929 -2.2489583,-2.2489583 -1e-7,-1.2420654 1.0068929,-2.2489584 2.2489583,-2.2489584 z"
       sodipodi:nodetypes="cccccsssss" /><path
       style="fill:#080e18;fill-opacity:1;stroke-width:0.79375;stroke-linejoin:round"
       d="M 9.0297615,10.442964 11.017773,8.4549526 V 2.2570356 L 9.0297615,4.2450473 Z"
       id="path22"
       sodipodi:nodetypes="ccc" /><path
       style="fill:#1e3454;fill-opacity:1;stroke-width:0.79375;stroke-linejoin:round"
       d="M 4.8198554,2.2570356 H 11.017773 L 9.0297615,4.2450473 H 2.831845 Z"
       id="path23"
       sodipodi:nodetypes="ccccc" /><path
       id="path24"
       style="fill:#e8873d;fill-opacity:1;stroke-width:0.79375;stroke-linejoin:round"
       d="M 5.1729774,5.2265544 C 4.3038035,5.5376079 3.6815955,6.3681322 3.6815956,7.3442546 c 0,1.2420654 1.0068929,2.2489583 2.2489583,2.2489583 1.0325166,0 1.9015918,-0.6960517 2.1657593,-1.6443441 -0.2367018,0.084663 -0.4917707,0.1312582 -0.7575765,0.1312582 -1.2420654,0 -2.2489583,-1.006893 -2.2489583,-2.2489584 0,-0.209653 0.029535,-0.4120733 0.083199,-0.6046142 z" /><path
       style="fill:none;fill-opacity:1;stroke-width:0.05291667;stroke-linejoin:round;stroke:#d6e4f0;stroke-opacity:1;stroke-dasharray:none"
       d="M 11.017773,8.4549524 V 2.2570359 H 4.8198554 l -1.9879154,1.988098 9.5e-5,6.1976391 6.1976405,9.6e-5 z"
       id="path26"
       sodipodi:nodetypes="ccccccc" /><path
       id="path27"
       style="fill:none;fill-opacity:1;stroke:#d6e4f0;stroke-width:0.0529167;stroke-linejoin:round;stroke-dasharray:none;stroke-opacity:1"
       d="M 8.0963132,7.9488688 C 7.8596114,8.0335318 7.6045425,8.080127 7.3387367,8.080127 c -1.2420654,0 -2.2489583,-1.006893 -2.2489583,-2.2489584 0,-0.209653 0.029535,-0.4120733 0.083199,-0.6046142"
       sodipodi:nodetypes="cssc" /><path
       d="m 5.9305539,5.0952962 c 1.242065,-1e-7 2.248958,1.0068935 2.248958,2.2489585 0,1.242065 -1.006893,2.248958 -2.248958,2.248958 -1.2420655,0 -2.2489584,-1.006893 -2.2489584,-2.248958 -10e-8,-1.242065 1.0068929,-2.2489585 2.2489584,-2.2489585 z"
       style="fill:none;fill-opacity:1;stroke-width:0.05291667;stroke-linejoin:round;stroke:#d6e4f0;stroke-opacity:1;stroke-dasharray:none"
       id="path1" /></g></svg>
