<?xml version="1.0" encoding="UTF-8" standalone="no"?>
<!-- Created with Inkscape (http://www.inkscape.org/) -->

<svg
   width="48"
   height="48"
   viewBox="0 0 12.7 12.7"
   version="1.1"
   id="svg1"
   inkscape:version="1.4 (e7c3feb1, 2024-10-09)"
   sodipodi:docname="tool_sketch_offset.svg"
   xml:space="preserve"
   xmlns:inkscape="http://www.inkscape.org/namespaces/inkscape"
   xmlns:sodipodi="http://sodipodi.sourceforge.net/DTD/sodipodi-0.dtd"
   xmlns="http://www.w3.org/2000/svg"
   xmlns:svg="http://www.w3.org/2000/svg"><sodipodi:namedview
     id="namedview1"
     pagecolor="#23456d"
     bordercolor="#000000"
     borderopacity="0.25"
     inkscape:showpageshadow="2"
     inkscape:pageopacity="0.0"
     inkscape:pagecheckerboard="false"
     inkscape:deskcolor="#d1d1d1"
     inkscape:document-units="px"
     inkscape:zoom="5.518803"
     inkscape:cx="26.817409"
     inkscape:cy="27.814002"
     inkscape:window-width="1648"
     inkscape:window-height="1056"
     inkscape:window-x="82"
     inkscape:window-y="33"
     inkscape:window-maximized="1"
     inkscape:current-layer="layer1"><sodipodi:guide
       position="0,12.170834"
       orientation="0,1"
       id="guide1"
       inkscape:locked="false"
       inkscape:label=""
       inkscape:color="rgb(0,134,229)" /><sodipodi:guide
       position="12.170834,12.7"
       orientation="-1,0"
       id="guide2"
       inkscape:locked="false"
       inkscape:label=""
       inkscape:color="rgb(0,134,229)" /><sodipodi:guide
       position="12.7,0.52916667"
       orientation="0,1"
       id="guide3"
       inkscape:locked="false"
       inkscape:label=""
       inkscape:color="rgb(0,134,229)" /><sodipodi:guide
       position="0.52916667,10.325107"
       orientation="-1,0"
       id="guide4"
       inkscape:locked="false"
       inkscape:label=""
       inkscape:color="rgb(0,134,229)" /></sodipodi:namedview><defs
     id="defs1" /><g
     inkscape:label="Layer 1"
     inkscape:groupmode="layer"
     id="layer1"><path
       id="rect5"
       style="fill:#e8873d;fill-opacity:1;stroke-width:0.0529167;stroke-linejoin:round"
       d="m 3.175,0.52916667 c -1.4657916,0 -2.64583333,1.18004173 -2.64583333,2.64583333 l 0,8.995833 H 1.3229167 l 0,-8.5627845 c 0,-1.2659109 1.0192209,-2.2851318 2.2851318,-2.2851318 h 5.483903 c 1.2659105,0 2.2851315,1.0192209 2.2851315,2.2851318 l 0,8.5627845 h 0.79375 l 0,-8.995833 c 0,-1.4657916 -1.180041,-2.64583333 -2.645833,-2.64583333 z"
       sodipodi:nodetypes="ssccssssccsss" /><path
       id="rect5-3"
       style="fill:#d6e4f0;fill-opacity:1;stroke-width:0.0318703;stroke-linejoin:round"
       d="m 4.437972,2.8442708 c -0.8828063,0 -1.5937012,0.7108949 -1.5937012,1.5937012 l 0,7.732861 h 0.79375 l 0,-7.3003293 c 0,-0.6829256 0.5495573,-1.2324829 1.2324829,-1.2324829 h 2.9589926 c 0.6829256,0 1.2324829,0.5495573 1.2324829,1.2324829 l 0,7.3003293 h 0.79375 l 0,-7.732861 c 0,-0.8828063 -0.7108949,-1.5937012 -1.5937012,-1.5937012 z"
       sodipodi:nodetypes="ssccssssccsss" /></g></svg>
