<?xml version="1.0" encoding="UTF-8" standalone="no"?>
<!-- Created with Inkscape (http://www.inkscape.org/) -->

<svg
   width="48"
   height="48"
   viewBox="0 0 12.7 12.7"
   version="1.1"
   id="svg1"
   inkscape:version="1.4 (e7c3feb1, 2024-10-09)"
   sodipodi:docname="tool_move.svg"
   xml:space="preserve"
   xmlns:inkscape="http://www.inkscape.org/namespaces/inkscape"
   xmlns:sodipodi="http://sodipodi.sourceforge.net/DTD/sodipodi-0.dtd"
   xmlns="http://www.w3.org/2000/svg"
   xmlns:svg="http://www.w3.org/2000/svg"><sodipodi:namedview
     id="namedview1"
     pagecolor="#23456d"
     bordercolor="#000000"
     borderopacity="0.25"
     inkscape:showpageshadow="2"
     inkscape:pageopacity="0.0"
     inkscape:pagecheckerboard="false"
     inkscape:deskcolor="#d1d1d1"
     inkscape:document-units="px"
     inkscape:zoom="11.100943"
     inkscape:cx="16.890457"
     inkscape:cy="22.025156"
     inkscape:window-width="1648"
     inkscape:window-height="1056"
     inkscape:window-x="82"
     inkscape:window-y="33"
     inkscape:window-maximized="1"
     inkscape:current-layer="layer1"><sodipodi:guide
       position="9.8836386,12.164543"
       orientation="0,1"
       id="guide1"
       inkscape:locked="false"
       inkscape:label=""
       inkscape:color="rgb(0,134,229)" /><sodipodi:guide
       position="12.170834,12.7"
       orientation="-1,0"
       id="guide2"
       inkscape:locked="false"
       inkscape:label=""
       inkscape:color="rgb(0,134,229)" /><sodipodi:guide
       position="12.7,0.52916667"
       orientation="0,1"
       id="guide3"
       inkscape:locked="false"
       inkscape:label=""
       inkscape:color="rgb(0,134,229)" /><sodipodi:guide
       position="0.52916667,12.7"
       orientation="-1,0"
       id="guide4"
       inkscape:locked="false"
       inkscape:label=""
       inkscape:color="rgb(0,134,229)" /></sodipodi:namedview><defs
     id="defs1" /><g
     inkscape:label="Layer 1"
     inkscape:groupmode="layer"
     id="layer1"><path
       id="path4"
       style="fill:#d6e4f0;stroke-width:0.0523138;stroke-linejoin:round;fill-opacity:1"
       d="M 6.35 1.0583333 A 5.2916665 5.2916665 0 0 0 4.0085409 1.6143717 L 4.6110881 2.2169189 A 4.4979167 4.4979167 0 0 1 6.35 1.8520833 A 4.4979167 4.4979167 0 0 1 8.0987305 2.2071004 L 8.6971436 1.6086873 A 5.2916665 5.2916665 0 0 0 6.35 1.0583333 z M 11.091313 4.0028564 L 10.4929 4.6012695 A 4.4979167 4.4979167 0 0 1 10.847917 6.35 A 4.4979167 4.4979167 0 0 1 10.4929 8.0987305 L 11.091313 8.6971436 A 5.2916665 5.2916665 0 0 0 11.641667 6.35 A 5.2916665 5.2916665 0 0 0 11.091313 4.0028564 z M 1.6143717 4.0085409 A 5.2916665 5.2916665 0 0 0 1.0583333 6.35 A 5.2916665 5.2916665 0 0 0 1.6143717 8.6914591 L 2.2169189 8.0889119 A 4.4979167 4.4979167 0 0 1 1.8520833 6.35 A 4.4979167 4.4979167 0 0 1 2.2169189 4.6110881 L 1.6143717 4.0085409 z M 4.6110881 10.483081 L 4.0085409 11.085628 A 5.2916665 5.2916665 0 0 0 6.35 11.641667 A 5.2916665 5.2916665 0 0 0 8.6971436 11.091313 L 8.0987305 10.4929 A 4.4979167 4.4979167 0 0 1 6.35 10.847917 A 4.4979167 4.4979167 0 0 1 4.6110881 10.483081 z " /><rect
       style="fill:#d6e4f0;fill-opacity:1;stroke-width:0.252921"
       id="rect2"
       width="4.5067606"
       height="0.79374999"
       x="4.0966196"
       y="-6.7468753"
       transform="rotate(90)" /><path
       id="rect3"
       style="baseline-shift:baseline;display:inline;overflow:visible;vector-effect:none;fill:#d6e4f0;stroke-width:0.818535;enable-background:accumulate;stop-color:#000000"
       d="M 7.4655359,4.0966195 H 5.2344654 L 6.3500003,2.6018032 Z"
       sodipodi:nodetypes="cccc" /><rect
       style="fill:#d6e4f0;fill-opacity:1;stroke-width:0.252921"
       id="rect1"
       width="4.5067606"
       height="0.79374999"
       x="4.0966201"
       y="5.9531255" /><path
       id="path1"
       style="baseline-shift:baseline;display:inline;overflow:visible;vector-effect:none;fill:#d6e4f0;stroke-width:0.818535;enable-background:accumulate;stop-color:#000000"
       d="M 4.0966197,5.2344645 V 7.465535 L 2.6018035,6.3500001 Z"
       sodipodi:nodetypes="cccc" /><path
       id="path2"
       style="baseline-shift:baseline;display:inline;overflow:visible;vector-effect:none;fill:#d6e4f0;stroke-width:0.818535;enable-background:accumulate;stop-color:#000000"
       d="M 5.234465,8.6033803 H 7.4655359 L 6.3500006,10.098197 Z"
       sodipodi:nodetypes="cccc" /><path
       id="path3"
       style="baseline-shift:baseline;display:inline;overflow:visible;vector-effect:none;fill:#d6e4f0;stroke-width:0.818535;enable-background:accumulate;stop-color:#000000"
       d="M 8.6033813,7.4655353 V 5.2344648 l 1.4948157,1.1155349 z"
       sodipodi:nodetypes="cccc" /><path
       id="path6"
       style="baseline-shift:baseline;display:inline;overflow:visible;vector-effect:none;fill:#d6e4f0;stroke-width:0.818535;enable-background:accumulate;stop-color:#000000"
       d="M 2.7044479,5.0986171 1.1268428,3.521012 2.9726399,3.2528195 Z"
       sodipodi:nodetypes="cccc" /><path
       id="path7"
       style="baseline-shift:baseline;display:inline;overflow:visible;vector-effect:none;fill:#d6e4f0;stroke-width:0.818535;enable-background:accumulate;stop-color:#000000"
       d="M 7.6091345,2.6966964 9.1867396,1.1190913 9.4549322,2.9648884 Z"
       sodipodi:nodetypes="cccc" /><path
       id="path8"
       style="baseline-shift:baseline;display:inline;overflow:visible;vector-effect:none;fill:#d6e4f0;stroke-width:0.818535;enable-background:accumulate;stop-color:#000000"
       d="M 11.580909,3.5132603 10.003304,5.0908656 9.7351121,3.2450685 Z"
       sodipodi:nodetypes="cccc" /><path
       id="path12"
       style="baseline-shift:baseline;display:inline;overflow:visible;vector-effect:none;fill:#d6e4f0;stroke-width:0.818535;enable-background:accumulate;stop-color:#000000"
       d="M 1.1268426,9.1789883 2.7044481,7.6013827 2.97264,9.4471802 Z"
       sodipodi:nodetypes="cccc" /><path
       id="path13"
       style="baseline-shift:baseline;display:inline;overflow:visible;vector-effect:none;fill:#d6e4f0;stroke-width:0.818535;enable-background:accumulate;stop-color:#000000"
       d="M 9.1867396,11.580909 7.6091345,10.003304 9.4549316,9.7351115 Z"
       sodipodi:nodetypes="cccc" /><path
       id="path14"
       style="baseline-shift:baseline;display:inline;overflow:visible;vector-effect:none;fill:#d6e4f0;stroke-width:0.818535;enable-background:accumulate;stop-color:#000000"
       d="M 5.098617,9.9955519 3.521012,11.573157 3.2528201,9.7273601 Z"
       sodipodi:nodetypes="cccc" /><path
       id="path15"
       style="baseline-shift:baseline;display:inline;overflow:visible;vector-effect:none;fill:#d6e4f0;stroke-width:0.818535;enable-background:accumulate;stop-color:#000000"
       d="M 3.521012,1.1268428 5.0986171,2.7044478 3.25282,2.9726403 Z"
       sodipodi:nodetypes="cccc" /><path
       id="path16"
       style="baseline-shift:baseline;display:inline;overflow:visible;vector-effect:none;fill:#d6e4f0;stroke-width:0.818535;enable-background:accumulate;stop-color:#000000"
       d="M 10.003304,7.6091345 11.580909,9.1867396 9.735112,9.4549321 Z"
       sodipodi:nodetypes="cccc" /></g></svg>
